<?xml version="1.0" standalone="no"?><!DOCTYPE svg PUBLIC "-//W3C//DTD SVG 1.1//EN" "http://www.w3.org/Graphics/SVG/1.1/DTD/svg11.dtd"><svg t="1606555249522" class="icon" viewBox="0 0 1024 1024" version="1.1" xmlns="http://www.w3.org/2000/svg" p-id="2089" xmlns:xlink="http://www.w3.org/1999/xlink" width="32" height="32"><defs><style type="text/css"></style></defs><path d="M881.5 425.4c-2.2-6.7-6.2-12.6-11.5-17.1-5.4-4.5-11.9-7.5-18.8-8.5l-211-30.7-94.3-191.5c-3.1-6.3-7.9-11.6-13.9-15.3s-12.8-5.7-19.9-5.7c-7 0-13.9 2-19.9 5.7-6 3.7-10.8 9-13.9 15.3L383.9 369l-211 30.7c-7 1-13.5 3.9-18.9 8.5-5.4 4.5-9.4 10.5-11.5 17.2-2.2 6.7-2.4 13.8-0.7 20.7s5.2 13 10.3 17.9l152.8 149-36.1 210.5c-1.2 6.9-0.4 14 2.2 20.5s7.1 12.1 12.7 16.3c5.7 4.1 12.4 6.6 19.4 7.1 7 0.5 14-1 20.2-4.2L512 763.7l188.8 99.4c6.2 3.3 13.2 4.7 20.2 4.2s13.7-3 19.4-7.1c5.7-4.1 10.1-9.8 12.7-16.3 2.6-6.5 3.4-13.6 2.2-20.5l-36-210.4L872 463.9c5-4.9 8.6-11.1 10.2-17.9 1.7-6.8 1.4-14-0.7-20.6zM652.6 572.9c-4.4 4.3-7.6 9.5-9.5 15.3-1.9 5.8-2.3 12-1.3 18L668.4 761l-138.8-73.1c-5.4-2.8-11.4-4.3-17.5-4.3s-12.1 1.5-17.5 4.3L355.8 761l26.5-154.8c1-6 0.6-12.2-1.3-18-1.9-5.8-5.2-11.1-9.5-15.3L259.1 463.2l155.2-22.6c6-0.9 11.7-3.2 16.7-6.8 4.9-3.6 8.9-8.3 11.6-13.8L512 279.3l69.4 140.9c2.7 5.5 6.7 10.2 11.6 13.8 4.9 3.6 10.6 5.9 16.7 6.8l155.2 22.6-112.3 109.5z" p-id="2090"></path></svg>