<?xml version="1.0" standalone="no"?><!DOCTYPE svg PUBLIC "-//W3C//DTD SVG 1.1//EN" "http://www.w3.org/Graphics/SVG/1.1/DTD/svg11.dtd"><svg t="1606555317163" class="icon" viewBox="0 0 1024 1024" version="1.1" xmlns="http://www.w3.org/2000/svg" p-id="2554" xmlns:xlink="http://www.w3.org/1999/xlink" width="32" height="32"><defs><style type="text/css"></style></defs><path d="M760.2 305.2c0 34.3-27.8 62-62 62-34.3 0-62-27.8-62-62s27.8-62 62-62 62 27.7 62 62z m62 0c0 68.5-55.5 124.1-124.1 124.1-35.4 0-67.3-14.8-90-38.6L446 480.8c2.6 10 4 20.5 4 31.2 0 10.8-1.4 21.3-4 31.2l162.2 90.1c22.6-23.8 54.5-38.6 90-38.6 68.5 0 124.1 55.5 124.1 124.1s-55.5 124.1-124.1 124.1c-68.5 0-124.1-55.5-124.1-124.1 0-10.8 1.4-21.3 4-31.2l-162.2-90.1c-22.6 23.8-54.5 38.6-90 38.6-68.5 0-124.1-55.6-124.1-124.1s55.6-124.1 124.1-124.1c35.4 0 67.3 14.8 90 38.6L578 336.4c-2.6-10-4-20.5-4-31.2 0-68.5 55.5-124.1 124.1-124.1 68.5 0 124.1 55.6 124.1 124.1z m-62 413.6c0 34.3-27.8 62-62 62-34.3 0-62-27.8-62-62s27.8-62 62-62 62 27.7 62 62zM387.9 512c0 34.3-27.8 62-62 62s-62-27.8-62-62 27.8-62 62-62 62 27.7 62 62z" p-id="2555"></path></svg>