<?xml version="1.0" standalone="no"?><!DOCTYPE svg PUBLIC "-//W3C//DTD SVG 1.1//EN" "http://www.w3.org/Graphics/SVG/1.1/DTD/svg11.dtd"><svg t="1606555216083" class="icon" viewBox="0 0 1024 1024" version="1.1" xmlns="http://www.w3.org/2000/svg" p-id="1779" xmlns:xlink="http://www.w3.org/1999/xlink" width="32" height="32"><defs><style type="text/css"></style></defs><path d="M357.3 285c-55.1 0-113.5 48-113.5 123.8 0 88.7 65.2 171 138.8 234.5 35.9 31 72 55.9 99.2 73 12.2 7.7 22.6 13.8 30.2 18.2 7.6-4.4 18-10.5 30.2-18.2 27.2-17.2 63.2-42.1 99.2-73 73.6-63.5 138.8-145.8 138.8-234.5 0-75.8-58.4-123.8-113.5-123.8-56.7 0-107.7 40.7-125 101.4-3.8 13.3-15.9 22.4-29.8 22.4s-26-9.2-29.8-22.4C464.9 325.7 413.9 285 357.3 285zM512 769.9l-14.2 27.5-0.1-0.1-0.2-0.1-0.8-0.4c-0.6-0.3-1.6-0.8-2.8-1.5-2.4-1.3-5.8-3.1-10-5.6-8.6-4.8-20.7-12-35.2-21.1-28.9-18.3-67.6-45-106.5-78.5-76-65.5-160.3-163.7-160.3-281.4C181.9 298.8 268 223 357.3 223c63.9 0 119.8 33.1 154.7 83.4 35-50.3 90.9-83.4 154.7-83.4 89.3 0 175.4 75.8 175.4 185.7 0 117.6-84.4 215.9-160.3 281.4-38.9 33.5-77.6 60.2-106.5 78.5-14.5 9.2-26.6 16.3-35.2 21.1-4.3 2.4-7.7 4.3-10 5.6-1.2 0.6-2.1 1.1-2.8 1.5l-0.8 0.4-0.2 0.1-0.1 0.1-14.2-27.5z m0 0l14.2 27.5c-8.9 4.6-19.6 4.6-28.5 0l14.3-27.5z" p-id="1780"></path></svg>