<?xml version="1.0" standalone="no"?><!DOCTYPE svg PUBLIC "-//W3C//DTD SVG 1.1//EN" "http://www.w3.org/Graphics/SVG/1.1/DTD/svg11.dtd"><svg t="1606555209869" class="icon" viewBox="0 0 1024 1024" version="1.1" xmlns="http://www.w3.org/2000/svg" p-id="1624" xmlns:xlink="http://www.w3.org/1999/xlink" width="32" height="32"><defs><style type="text/css"></style></defs><path d="M666.7 223.1c-63.9 0-119.8 33.1-154.7 83.4-35-50.3-90.9-83.4-154.7-83.4-89.3 0-175.4 75.8-175.4 185.7 0 117.6 84.4 215.9 160.3 281.4 38.9 33.5 77.6 60.2 106.5 78.5 14.5 9.2 26.6 16.3 35.2 21.1 4.3 2.4 7.7 4.3 10 5.6 1.2 0.6 2.1 1.1 2.8 1.5l0.8 0.4 0.2 0.1 0.1 0.1c8.9 4.6 19.6 4.6 28.5 0l0.1-0.1 0.2-0.1 0.8-0.4c0.6-0.3 1.6-0.8 2.8-1.5 2.4-1.3 5.8-3.1 10-5.6 8.6-4.8 20.7-12 35.2-21.1 28.9-18.3 67.6-45 106.5-78.5 76-65.5 160.3-163.7 160.3-281.4-0.1-109.9-86.1-185.7-175.5-185.7z" p-id="1625"></path></svg>